<?xml version="1.0" encoding="utf-8"?><svg xmlns="http://www.w3.org/2000/svg"><symbol fill="none" viewBox="0 0 24 24" id="icon-add-to-cart" xmlns="http://www.w3.org/2000/svg"><path fill-rule="evenodd" clip-rule="evenodd" d="M12 11a.571.571 0 00-.571.571v2.858H8.57a.571.571 0 100 1.142h2.858v2.858a.571.571 0 101.142 0V15.57h2.858a.571.571 0 100-1.142H12.57V11.57A.571.571 0 0012 11z" fill="#5B4436"/><path d="M8.5 9.5c0-4 0-7.5 3.5-7.5s3.5 3.5 3.5 7.5M5.936 7h12.128a1 1 0 01.998.933l.867 13A1 1 0 0118.93 22H5.07a1 1 0 01-.998-1.067l.867-13A1 1 0 015.936 7z" stroke="#5B4436" stroke-linecap="round" stroke-linejoin="round"/></symbol><symbol fill="none" viewBox="0 0 40 35" id="icon-amex" xmlns="http://www.w3.org/2000/svg"><g clip-path="url(#abclip0)"><path d="M22.349 11.47c0-1.12-.964-1.257-1.873-1.257l-2.673-.02v4.737h1.121v-1.716h1.23c1.259 0 .992.704 1.012 1.716h1.135v-.923c0-.63-.102-1.032-.752-1.258.506-.205.807-.731.8-1.278zm-2.01.773h-1.415v-1.046h1.436c.348 0 .731.069.731.506 0 .451-.362.54-.752.54zm-1.141 6.118h-3.603L14.16 19.92l-1.4-1.559H8.211L8.205 23.1h4.471l1.456-1.573 1.395 1.573h2.2l.008-1.593c1.292 0 3.37.314 3.37-1.593 0-1.183-.841-1.552-1.907-1.552zm-7.096 3.74H9.327v-.944h2.481v-.964H9.327v-.854h2.85l1.224 1.38-1.3 1.382zm4.498.56l-1.73-1.92 1.73-1.874v3.794zm2.584-2.119h-1.45v-1.203h1.47c.383 0 .698.157.698.574 0 .438-.315.629-.718.629zm-2.16-9.345V10.2H13.23v4.738h3.794v-.978h-2.66v-.943h2.585v-.964h-2.584v-.855h2.659zM39.5 17.46h-.013.013zm-13.302 2.18c0-1.12-.964-1.278-1.853-1.278h-2.693l-.007 4.738h1.135l.006-1.73h1.204c.752 0 1.011.137 1.011.944l-.007.786h1.135l.007-.944c0-.608-.123-1.032-.752-1.258.526-.211.807-.738.814-1.257zm-1.997.766h-1.415V19.34h1.436c.349 0 .731.068.731.506 0 .471-.369.56-.752.56zm-11.811-5.47V10.2h-1.887l-1.346 3.213L7.672 10.2H5.82v4.491L3.899 10.2H2.224l-2.03 4.737h1.223l.438-1.046h2.358l.438 1.046h2.31V11.23l1.64 3.706H9.6l1.64-3.706v3.706h1.149zm-10.13-2.03l.765-1.886.786 1.886H2.258zM34.892 23.77v-.308c-.738.383-.267.308-10.712.308 0-1.723.007-1.634 0-1.723-.116-.007-.219-.007-.643-.007 0 1.224-.006.465-.006 1.73h-2.707c0-.828.006-1.046.006-1.996-.683.41-1.558.437-2.344.423 0 1.005-.007.568-.007 1.573h-3.343c-.348-.39-.184-.212-1.053-1.19-.218.24-.875.95-1.1 1.19H7.378v-6.31h5.681c.342.383.191.212 1.06 1.176.218-.24.834-.916 1.073-1.176h3.965c.67 0 1.23.13 1.66.383v-.383c3.713 0 4.396-.096 5.176.349v-.349h5.345v.355c.78-.471 1.34-.355 4.437-.355v.342c.704-.403 1.135-.356 3.712-.342V5.469a3.282 3.282 0 00-3.282-3.282H3.393A3.282 3.282 0 00.112 5.47v7.506L1.69 9.29h2.714c.294.69.109.253.615 1.442V9.29h3.144c.199.424.76 1.64.95 2.05.397-.929.691-1.633.862-2.05h7.041c0-.007.786 0 .793 0 2.987.014 3.664-.055 4.402.362V9.29h2.728v.636c.52-.417 1.223-.636 2.098-.636h1.887c0 .034.13.02.157.02h2.215c.287.67.178.41.602 1.409V9.31h2.96c.335.546-.069-.123.765 1.257V9.311h2.728V15.6h-2.844c-.369-.616-.096-.15-.902-1.498V15.6h-3.61c-.437-1.012-.006-.02-.45-1.046h-1.3c-.287.683-.15.355-.437 1.046h-1.832c-.84 0-1.524-.205-2.03-.609v.609H20.4c-.02-.95-.007-1.696-.007-1.696-.123-.02-.232-.013-.67-.013v1.715H10.46v-.779c-.17.383-.184.403-.348.78H8.096c-.273-.609-.198-.438-.349-.78v.78H4.131c-.287-.691-.15-.363-.437-1.046H2.38c-.287.683-.15.355-.437 1.045H.125v13.925a3.282 3.282 0 003.282 3.282h32.819a3.282 3.282 0 003.281-3.282v-6.18c-.868.568-2.235.418-4.614.418zm2.481-4.41h2.058v-.998h-2.249c-.875 0-1.627.451-1.627 1.415 0 2.256 2.919.875 2.919 1.873 0 .349-.294.438-.574.438h-2.188l-.007 1.012h2.188c.574 0 1.203-.123 1.538-.609v-1.763c-.718-.944-2.687-.09-2.687-.923 0-.397.315-.445.63-.445zm-3.896 2.721h-2.201l-.007 1.012h2.201c1.012 0 1.791-.383 1.791-1.504 0-2.27-2.932-.766-2.932-1.798 0-.383.334-.438.628-.438h2.078v-.997h-2.269c-.875 0-1.607.45-1.607 1.415 0 2.255 2.92.854 2.92 1.873-.007.369-.322.437-.602.437zm-2.885-2.741v-.978H26.82l-.007 4.738h3.773l.007-.978-2.639-.02v-.944h2.591v-.964h-2.584v-.854h2.632zm-3.849-7.39c-.02.014-.095.15-.095.52 0 .41.061.526.075.54a.539.539 0 00.232.034l.5-1.155c-.076 0-.144-.007-.212-.007-.383 0-.479.048-.5.068zm1.395-.718h-.007.007zm-1.107-1.039c-1.607 0-2.325.82-2.325 2.413 0 1.518.698 2.325 2.256 2.325h1.313l.437-1.046h2.345l.451 1.046h2.304v-3.548l2.133 3.548h1.613v-4.717h-1.155V13.5l-1.99-3.288h-1.73v4.47l-1.906-4.47h-1.696l-1.606 3.726h-.506c-.91 0-1.1-.554-1.1-1.36 0-1.628 1.073-1.368 2.262-1.348v-1.039h-1.1zm2.878.828l.765 1.886h-1.558l.793-1.886zm-6.912-.82v4.737h1.156V10.2h-1.156z" fill="#F1EBE7"/></g><defs><clipPath id="abclip0"><path fill="#fff" transform="translate(.125)" d="M0 0h39.375v35H0z"/></clipPath></defs></symbol><symbol fill="none" viewBox="0 0 20 20" id="icon-arrow" xmlns="http://www.w3.org/2000/svg"><path fill-rule="evenodd" clip-rule="evenodd" d="M9.038 1.061a.5.5 0 000 .707L17.17 9.9l-8.132 8.13a.5.5 0 000 .707l.707.708a.5.5 0 00.707 0l8.132-8.132L19.998 9.9l-1.414-1.415L10.453.354a.5.5 0 00-.708 0l-.707.707z" fill="#C5BBB6"/></symbol><symbol fill="none" viewBox="0 0 24 24" id="icon-arrow-before" xmlns="http://www.w3.org/2000/svg"><path fill-rule="evenodd" clip-rule="evenodd" d="M12.962 20.94a.5.5 0 000-.708L4.83 12.1l8.132-8.131a.5.5 0 000-.707l-.707-.708a.5.5 0 00-.707 0l-8.132 8.132L2.002 12.1l1.414 1.415 8.131 8.131a.5.5 0 00.708 0l.707-.707z" fill="#C5BBB6"/></symbol><symbol fill="none" viewBox="0 0 12 12" id="icon-arrow-down" xmlns="http://www.w3.org/2000/svg"><g clip-path="url(#aeclip0)"><path fill-rule="evenodd" clip-rule="evenodd" d="M10.646 4.596a.5.5 0 00-.707 0L6.05 8.486l-3.889-3.89a.5.5 0 00-.707.707L6.05 9.9l4.596-4.596a.5.5 0 000-.707z" fill="#C5BBB6"/></g><defs><clipPath id="aeclip0"><path fill="#fff" transform="rotate(90 6 6)" d="M0 0h12v12H0z"/></clipPath></defs></symbol><symbol fill="none" viewBox="0 0 12 20" id="icon-arrow-next" xmlns="http://www.w3.org/2000/svg"><path fill-rule="evenodd" clip-rule="evenodd" d="M1.192.707a1 1 0 000 1.414L8.971 9.9l-7.779 7.779a1 1 0 101.415 1.414L11.799 9.9 2.607.707a1 1 0 00-1.415 0z" fill="#5B4436"/></symbol><symbol fill="none" viewBox="0 0 12 20" id="icon-arrow-prev" xmlns="http://www.w3.org/2000/svg"><path fill-rule="evenodd" clip-rule="evenodd" d="M10.808 19.293a1 1 0 000-1.414L3.029 10.1l7.779-7.779A1 1 0 009.393.908L.201 10.101l9.192 9.192a1 1 0 001.415 0z" fill="#5B4436"/></symbol><symbol fill="none" viewBox="0 0 6 10" id="icon-breadcrumb" xmlns="http://www.w3.org/2000/svg"><path d="M.95.95l3.974 3.975L.95 8.9" stroke="#A69B95" stroke-linecap="round"/></symbol><symbol fill="none" viewBox="0 0 34 22" id="icon-burger" xmlns="http://www.w3.org/2000/svg"><path fill="#F1EBE7" d="M0 0h34v2H0zm0 10h34v2H0zm0 10h34v2H0z"/></symbol><symbol fill="none" viewBox="0 0 24 24" id="icon-calendar" xmlns="http://www.w3.org/2000/svg"><path d="M20 3h-1V1h-2v2H7V1H5v2H4c-1.1 0-2 .9-2 2v16c0 1.1.9 2 2 2h16c1.1 0 2-.9 2-2V5c0-1.1-.9-2-2-2zm0 18H4V10h16v11zm0-13H4V5h16v3z" fill="#A0894E"/></symbol><symbol fill="none" viewBox="0 0 18 18" id="icon-check" xmlns="http://www.w3.org/2000/svg"><path d="M6.75 12.15L3.6 9l-1.05 1.05 4.2 4.2 9-9L14.7 4.2l-7.95 7.95z" fill="#FEFDFA"/></symbol><symbol fill="none" viewBox="0 0 26 27" id="icon-close" xmlns="http://www.w3.org/2000/svg"><path fill="#F1EBE7" d="M1.414.605L25.456 25.31l-1.415 1.453L0 2.06z"/><path fill="#F1EBE7" d="M0 25.309L24.04.606l1.415 1.453L1.414 26.762z"/></symbol><symbol fill="none" viewBox="0 0 32 32" id="icon-close-modal" xmlns="http://www.w3.org/2000/svg"><path d="M16 2.667A13.321 13.321 0 002.667 16c0 7.373 5.96 13.333 13.333 13.333S29.333 23.373 29.333 16 23.373 2.667 16 2.667zm6.667 18.12l-1.88 1.88L16 17.88l-4.787 4.787-1.88-1.88L14.12 16l-4.787-4.787 1.88-1.88L16 14.12l4.787-4.787 1.88 1.88L17.88 16l4.787 4.787z" fill="#A69B95"/></symbol><symbol fill="none" viewBox="0 0 40 40" id="icon-facebook" xmlns="http://www.w3.org/2000/svg"><path d="M39.375 20C39.375 9.297 30.703.625 20 .625S.625 9.297.625 20c0 9.67 7.085 17.686 16.348 19.14V25.6H12.05V20h4.922v-4.269c0-4.855 2.89-7.537 7.318-7.537 2.12 0 4.337.378 4.337.378v4.766h-2.444c-2.406 0-3.157 1.493-3.157 3.025V20H28.4l-.86 5.6h-4.514v13.54C32.29 37.687 39.375 29.67 39.375 20z" fill="#F1EBE7"/></symbol><symbol fill="none" viewBox="0 0 32 32" id="icon-filter" xmlns="http://www.w3.org/2000/svg"><path fill-rule="evenodd" clip-rule="evenodd" d="M12.83 19H28v2H12.83a3.001 3.001 0 01-5.66 0H4v-2h3.17a3.001 3.001 0 015.66 0z" fill="#A0894E"/><circle cx="10" cy="20" r="2" fill="#F1EBE7"/><path fill-rule="evenodd" clip-rule="evenodd" d="M24.83 11H28v2h-3.17a3.001 3.001 0 01-5.66 0H4v-2h15.17a3.001 3.001 0 015.66 0z" fill="#A0894E"/><circle cx="22" cy="12" r="2" fill="#F1EBE7"/></symbol><symbol fill="none" viewBox="0 0 40 40" id="icon-instagram" xmlns="http://www.w3.org/2000/svg"><circle cx="20" cy="20" r="20" fill="#F1EBE7"/><g clip-path="url(#apclip0)"><path d="M20.006 13.044c-3.408 0-6.156 2.806-6.156 6.284 0 3.478 2.748 6.283 6.156 6.283 3.407 0 6.155-2.805 6.155-6.283s-2.748-6.284-6.155-6.284zm0 10.369c-2.202 0-4.002-1.832-4.002-4.085s1.794-4.085 4.002-4.085c2.207 0 4.001 1.832 4.001 4.085s-1.8 4.085-4.002 4.085zm7.842-10.626c0 .815-.642 1.466-1.435 1.466-.799 0-1.436-.656-1.436-1.466 0-.81.643-1.466 1.436-1.466.793 0 1.435.657 1.435 1.466zm4.077 1.488c-.091-1.964-.53-3.703-1.94-5.136-1.403-1.432-3.106-1.88-5.03-1.98-1.982-.114-7.923-.114-9.905 0-1.918.094-3.621.542-5.03 1.975-1.41 1.433-1.843 3.172-1.94 5.135-.112 2.024-.112 8.088 0 10.112.092 1.963.53 3.702 1.94 5.135 1.409 1.433 3.107 1.881 5.03 1.98 1.982.114 7.923.114 9.905 0 1.924-.093 3.627-.542 5.03-1.98 1.404-1.433 1.844-3.172 1.94-5.135.113-2.024.113-8.083 0-10.106zm-2.56 12.277a4.095 4.095 0 01-2.283 2.33c-1.58.64-5.33.492-7.076.492-1.747 0-5.502.142-7.077-.492a4.095 4.095 0 01-2.283-2.33c-.626-1.613-.482-5.442-.482-7.224 0-1.783-.139-5.617.482-7.224a4.095 4.095 0 012.283-2.33c1.58-.64 5.33-.492 7.077-.492 1.746 0 5.501-.143 7.076.492a4.094 4.094 0 012.282 2.33c.627 1.613.482 5.44.482 7.224 0 1.782.145 5.616-.482 7.224z" fill="#5B4436"/></g><defs><clipPath id="apclip0"><path fill="#fff" transform="translate(8 5.333)" d="M0 0h24v28H0z"/></clipPath></defs></symbol><symbol fill="none" viewBox="0 0 24 24" id="icon-login" xmlns="http://www.w3.org/2000/svg"><path d="M14.672 1.875h6.515c.517 0 .938.42.938.938v18.375c0 .516-.42.937-.938.937h-6.515V24h6.515A2.816 2.816 0 0024 21.187V2.813A2.816 2.816 0 0021.187 0h-6.515v1.875z" fill="#C5BBB6"/><path d="M11.05 7.5l3.562 3.563H0v1.875h14.612L11.049 16.5l1.326 1.326L18.201 12l-5.826-5.826L11.049 7.5z" fill="#C5BBB6"/></symbol><symbol fill="none" viewBox="0 0 18 18" id="icon-logout" xmlns="http://www.w3.org/2000/svg"><path d="M7.009 16.594H2.122a.704.704 0 01-.703-.703V2.109c0-.387.315-.703.703-.703H7.01V0H2.122C.96 0 .012.946.012 2.11v13.78c0 1.164.947 2.11 2.11 2.11H7.01v-1.406z" fill="#C5BBB6"/><path d="M17.987 9l-4.37-4.37-.993.995 2.671 2.672H4.338v1.406h10.959l-2.672 2.672.994.994L17.988 9z" fill="#C5BBB6"/></symbol><symbol fill="none" viewBox="0 0 41 35" id="icon-mastercard" xmlns="http://www.w3.org/2000/svg"><g clip-path="url(#asclip0)"><path d="M33.76 28.048c0 .465-.314.8-.765.8-.465 0-.765-.356-.765-.8 0-.444.3-.8.765-.8.451 0 .766.355.766.8zm-21.245-.8c-.486 0-.766.355-.766.8 0 .444.28.8.766.8.444 0 .745-.335.745-.8-.007-.444-.301-.8-.745-.8zm8.032-.02c-.37 0-.595.239-.65.594h1.306c-.061-.39-.3-.595-.656-.595zm7.369.02c-.465 0-.745.355-.745.8 0 .444.28.8.745.8.465 0 .766-.335.766-.8 0-.444-.301-.8-.766-.8zm7.24 1.784c0 .02.02.034.02.075 0 .02-.02.035-.02.076-.021.02-.021.034-.035.054-.02.02-.034.035-.075.035-.02.02-.034.02-.075.02-.02 0-.034 0-.075-.02-.021 0-.035-.021-.055-.035-.02-.02-.034-.034-.034-.054-.02-.035-.02-.055-.02-.076 0-.034 0-.054.02-.075 0-.034.02-.055.034-.075.02-.02.034-.02.054-.034.035-.02.055-.02.076-.02.034 0 .054 0 .075.02.034.02.055.02.075.034.02.014.014.041.034.075zm-.151.096c.034 0 .034-.02.055-.02.02-.021.02-.035.02-.055 0-.02 0-.034-.02-.055-.02 0-.035-.02-.076-.02h-.109v.239h.055v-.096h.02l.075.096h.055l-.075-.09zm5.12-23.59V29.6a3.282 3.282 0 01-3.281 3.28H4.03A3.282 3.282 0 01.75 29.6V5.537a3.282 3.282 0 013.281-3.281h32.813a3.282 3.282 0 013.281 3.281zm-35 9.542c0 5.23 4.245 9.468 9.468 9.468 1.86 0 3.684-.56 5.23-1.58-4.984-4.053-4.95-11.702 0-15.756a9.476 9.476 0 00-5.23-1.58c-5.223-.006-9.468 4.24-9.468 9.448zm15.313 7.438c4.819-3.76 4.798-11.088 0-14.869-4.8 3.78-4.82 11.116 0 14.869zm-9.728 5.215c0-.594-.39-.984-1.005-1.005-.314 0-.65.096-.875.445-.164-.28-.444-.444-.834-.444-.26 0-.52.095-.725.369v-.301h-.56v2.509h.56c0-1.292-.17-2.065.616-2.065.697 0 .56.698.56 2.065h.54c0-1.251-.17-2.065.616-2.065.697 0 .56.684.56 2.065h.56v-1.573h-.013zm3.07-.936h-.54v.3a.985.985 0 00-.8-.369c-.705 0-1.245.561-1.245 1.32 0 .766.54 1.32 1.245 1.32.355 0 .615-.13.8-.37v.314h.54v-2.515zm2.768 1.75c0-1.026-1.566-.56-1.566-1.04 0-.389.814-.327 1.265-.074l.226-.445c-.643-.417-2.065-.41-2.065.56 0 .978 1.566.568 1.566 1.026 0 .43-.923.397-1.415.055l-.24.43c.766.52 2.229.41 2.229-.512zm2.42.636l-.15-.465c-.26.143-.835.3-.835-.28v-1.135h.896v-.506h-.896v-.766h-.56v.766h-.52v.499h.52v1.142c0 1.203 1.183.984 1.545.745zm.909-.916h1.88c0-1.108-.506-1.545-1.19-1.545-.724 0-1.244.54-1.244 1.319 0 1.401 1.545 1.634 2.31.97l-.259-.41c-.533.438-1.34.397-1.497-.334zm4.04-1.47c-.315-.137-.793-.123-1.04.3v-.3h-.56v2.509h.56V27.89c0-.793.65-.69.876-.575l.164-.52zm.725 1.25c0-.778.793-1.031 1.415-.573l.26-.445c-.794-.622-2.236-.28-2.236 1.026 0 1.353 1.531 1.627 2.235 1.025l-.26-.444c-.628.444-1.414.178-1.414-.588zm4.56-1.25h-.561v.3c-.568-.751-2.044-.328-2.044.95 0 1.313 1.53 1.69 2.044.951v.314h.56v-2.515zm2.303 0c-.164-.082-.752-.198-1.04.3v-.3h-.54v2.509h.54V27.89c0-.752.616-.704.876-.575l.164-.52zm2.755-1.019h-.54v1.32c-.56-.745-2.044-.349-2.044.95 0 1.326 1.538 1.682 2.044.95v.314h.54v-3.534zm.52-5.133v.314h.054v-.314h.13v-.055h-.315v.055h.13zm.45 8.462c0-.034 0-.075-.02-.109-.02-.02-.034-.055-.055-.075-.02-.02-.054-.034-.075-.055-.034 0-.075-.02-.11-.02-.02 0-.054.02-.095.02a.353.353 0 00-.075.055c-.034.02-.055.055-.055.075-.02.034-.02.075-.02.11 0 .02 0 .054.02.095 0 .02.02.055.055.075.02.02.034.035.075.055a.19.19 0 00.096.02c.034 0 .075 0 .11-.02.02-.02.054-.034.074-.055.02-.02.035-.054.055-.075.02-.04.02-.075.02-.096zm.22-8.524h-.097l-.109.24-.11-.24h-.095v.37h.055v-.281l.11.24h.074l.096-.24v.28h.075v-.369zm.3-5.503c0-5.209-4.245-9.454-9.468-9.454-1.86 0-3.684.56-5.23 1.58 4.93 4.053 5.005 11.723 0 15.756a9.51 9.51 0 005.23 1.579c5.223.007 9.468-4.231 9.468-9.46z" fill="#F1EBE7"/></g><defs><clipPath id="asclip0"><path fill="#fff" transform="translate(.75)" d="M0 0h39.375v35H0z"/></clipPath></defs></symbol><symbol fill="none" viewBox="0 0 24 24" id="icon-mini_cart" xmlns="http://www.w3.org/2000/svg"><path d="M21.92 22.997L20.46 6.734a.861.861 0 00-.858-.785H16.59V4.591A4.596 4.596 0 0012 0a4.596 4.596 0 00-4.59 4.591v1.358H4.394a.861.861 0 00-.858.785L2.071 23.062A.861.861 0 002.93 24h18.142a.861.861 0 00.85-1.003zM9.132 4.591A2.871 2.871 0 0112 1.723a2.871 2.871 0 012.868 2.868v1.358H9.132V4.591zm-5.26 17.686L5.183 7.672h2.226v1.54a.861.861 0 101.723 0v-1.54h5.736v1.54a.861.861 0 101.722 0v-1.54h2.224l1.312 14.605H3.872z" fill="#C5BBB6"/></symbol><symbol fill="none" viewBox="0 0 28 28" id="icon-minus" xmlns="http://www.w3.org/2000/svg"><path fill="#A69B95" d="M7 15v-2h14v2z"/></symbol><symbol fill="none" viewBox="0 0 24 24" id="icon-pagination-next" xmlns="http://www.w3.org/2000/svg"><g clip-path="url(#avclip0)"><path d="M8.271 2.572L17.7 12l-9.428 9.428" stroke="#A0894E" stroke-width="2" stroke-linecap="round"/></g><defs><clipPath id="avclip0"><path fill="#fff" d="M0 0h24v24H0z"/></clipPath></defs></symbol><symbol fill="none" viewBox="0 0 24 24" id="icon-pagination-prev" xmlns="http://www.w3.org/2000/svg"><g clip-path="url(#awclip0)"><path d="M15.729 21.428L6.3 12l9.428-9.428" stroke="#A0894E" stroke-width="2" stroke-linecap="round"/></g><defs><clipPath id="awclip0"><path fill="#fff" transform="rotate(-180 12 12)" d="M0 0h24v24H0z"/></clipPath></defs></symbol><symbol fill="none" viewBox="0 0 24 24" id="icon-persone" xmlns="http://www.w3.org/2000/svg"><path d="M12 15c4.5 0 7.5 1.5 8 3.25V20H4v-1.75C4.5 16.5 7.5 15 12 15zm0-2c-4.5 0-10 1.925-10 5.25V22h20v-3.75C22 14.925 16.5 13 12 13z" fill="#A0894E"/><circle cx="12" cy="7" r="4" stroke="#A0894E" stroke-width="2"/></symbol><symbol fill="none" viewBox="0 0 80 80" id="icon-play" xmlns="http://www.w3.org/2000/svg"><circle opacity=".2" cx="40" cy="40" r="40" fill="#fff"/><g clip-path="url(#ayclip0)"><path d="M61.463 36.148L33.564 19.654c-2.266-1.34-5.738-.04-5.738 3.274v32.979c0 2.972 3.226 4.763 5.738 3.273l27.899-16.486c2.489-1.466 2.497-5.08 0-6.546z" fill="#fff"/></g><defs><clipPath id="ayclip0"><path fill="#fff" transform="translate(27.826 19.13)" d="M0 0h35.507v40.58H0z"/></clipPath></defs></symbol><symbol fill="none" viewBox="0 0 28 28" id="icon-plus" xmlns="http://www.w3.org/2000/svg"><path fill="#A69B95" d="M13 7h2v14h-2z"/><path fill="#A69B95" d="M7 15v-2h14v2z"/></symbol><symbol fill="none" viewBox="0 0 19 19" id="icon-profile" xmlns="http://www.w3.org/2000/svg"><path d="M2.782 12.283a9.464 9.464 0 013.61-2.265 5.49 5.49 0 01-2.384-4.526A5.498 5.498 0 019.5 0a5.498 5.498 0 015.492 5.492 5.49 5.49 0 01-2.385 4.526 9.464 9.464 0 013.61 2.264A9.438 9.438 0 0119 19h-1.484c0-4.42-3.596-8.016-8.016-8.016S1.484 14.58 1.484 19H0c0-2.538.988-4.923 2.782-6.717zM9.5 9.5a4.012 4.012 0 004.008-4.008A4.012 4.012 0 009.5 1.484a4.012 4.012 0 00-4.008 4.008A4.012 4.012 0 009.5 9.5z" fill="#C5BBB6"/><path d="M1 17.5h17l1 1.5H0l1-1.5z" fill="#C5BBB6"/></symbol><symbol fill="none" viewBox="0 0 40 35" id="icon-stripe" xmlns="http://www.w3.org/2000/svg"><g clip-path="url(#bbclip0)"><path d="M33.66 15.094c-.608 0-1.278.458-1.278 1.551h2.509c0-1.093-.636-1.551-1.23-1.551zm-8.025.178c-.56 0-.91.198-1.162.478l.013 3.61c.24.252.581.457 1.149.457.895 0 1.497-.977 1.497-2.283 0-1.271-.615-2.27-1.497-2.262zM36.094 2.186H3.28A3.282 3.282 0 000 5.47v24.06a3.282 3.282 0 003.281 3.282h32.813a3.282 3.282 0 003.281-3.282V5.47a3.282 3.282 0 00-3.281-3.282zm-27.74 17.03c0 1.75-1.388 2.741-3.412 2.755a6.71 6.71 0 01-2.652-.554V19.1c.82.437 1.853.772 2.66.772.54 0 .929-.143.929-.595 0-1.162-3.691-.724-3.691-3.41 0-1.723 1.312-2.749 3.28-2.749.807 0 1.607.123 2.414.444v2.284c-.738-.397-1.675-.622-2.413-.622-.513 0-.827.15-.827.526 0 1.094 3.712.574 3.712 3.466zm4.703-3.87H11.21V18.8c0 1.428 1.538.984 1.846.861v1.976c-.322.178-.91.321-1.703.321-1.442 0-2.522-1.06-2.522-2.495l.014-7.786 2.372-.506v2.105h1.839v2.072zm5.058.165c-.307-.103-1.278-.246-1.852.506v5.77h-2.427v-8.512h2.099l.15.718c.567-1.046 1.702-.834 2.023-.718h.007v2.236zm3.015 6.275h-2.44v-8.51h2.44v8.51zm0-9.768l-2.44.52v-1.976l2.44-.52v1.976zm5.065 9.946c-.847 0-1.367-.362-1.715-.615l-.007 2.748-2.427.512V13.275h2.14l.123.602c.335-.308.95-.759 1.9-.759 1.702 0 3.309 1.538 3.309 4.362 0 3.082-1.586 4.477-3.323 4.484zm10.965-3.52h-4.75c.109 1.134.943 1.47 1.886 1.47.964 0 1.723-.206 2.386-.541v1.955c-.663.362-1.532.629-2.694.629-2.365 0-4.02-1.483-4.02-4.41 0-2.474 1.402-4.436 3.713-4.436 2.303 0 3.507 1.962 3.507 4.45 0 .24-.021.746-.028.882z" fill="#F1EBE7"/></g><defs><clipPath id="bbclip0"><path fill="#fff" d="M0 0h39.375v35H0z"/></clipPath></defs></symbol><symbol fill="none" viewBox="0 0 24 24" id="icon-time" xmlns="http://www.w3.org/2000/svg"><path d="M16.24 7.75A5.974 5.974 0 0012 5.99v6l-4.24 4.24c2.34 2.34 6.14 2.34 8.49 0a5.99 5.99 0 00-.01-8.48zM12 1.99c-5.52 0-10 4.48-10 10s4.48 10 10 10 10-4.48 10-10-4.48-10-10-10zm0 18c-4.42 0-8-3.58-8-8s3.58-8 8-8 8 3.58 8 8-3.58 8-8 8z" fill="#A0894E"/></symbol><symbol fill="none" viewBox="0 0 40 35" id="icon-visa" xmlns="http://www.w3.org/2000/svg"><g clip-path="url(#bdclip0)"><path d="M32.51 15.812s.52 2.543.637 3.076h-2.284c.226-.609 1.094-2.974 1.094-2.974-.014.02.226-.622.362-1.018l.192.915zm7.24-10.343V29.53a3.282 3.282 0 01-3.281 3.282H3.656A3.282 3.282 0 01.375 29.53V5.47a3.282 3.282 0 013.281-3.282H36.47a3.282 3.282 0 013.28 3.282zM10.8 22.64l4.32-10.61h-2.905l-2.687 7.246-.294-1.47-.957-4.88c-.157-.677-.642-.868-1.244-.896H2.61l-.047.212c1.08.274 2.043.67 2.884 1.17l2.448 9.228H10.8zm6.453.013l1.723-10.623h-2.748l-1.716 10.623h2.74zm9.563-3.472c.014-1.21-.724-2.133-2.303-2.892-.964-.485-1.552-.813-1.552-1.313.014-.45.499-.915 1.579-.915a4.711 4.711 0 012.044.403l.246.116.376-2.297a6.827 6.827 0 00-2.46-.451c-2.715 0-4.622 1.45-4.636 3.514-.02 1.524 1.367 2.372 2.407 2.884 1.06.52 1.422.862 1.422 1.32-.014.71-.862 1.039-1.648 1.039-1.094 0-1.682-.171-2.577-.567l-.362-.171-.383 2.385c.642.294 1.832.554 3.062.568 2.885.006 4.765-1.422 4.785-3.623zm9.653 3.472L34.254 12.03h-2.126c-.656 0-1.155.192-1.436.882l-4.08 9.741h2.884l.574-1.593h3.528c.082.377.328 1.593.328 1.593h2.543z" fill="#F1EBE7"/></g><defs><clipPath id="bdclip0"><path fill="#fff" transform="translate(.375)" d="M0 0h39.375v35H0z"/></clipPath></defs></symbol></svg>