<svg width="80" height="80" fill="none" xmlns="http://www.w3.org/2000/svg"><path fill-rule="evenodd" clip-rule="evenodd" d="M54.097 2.402l-4.815-1.376-2.97 10.065 1.18.353 1.382-4.68 3.633 1.056.143-.44-3.666-1.057 1.347-4.504 3.644 1.024.122-.44zm6.868 5.826l-.673 5.44-.354.177.607-5.122.42-.495zm-1.711 6.586l6.758-3.745-5.753 7.17.408.32 6.604-8.228-.376-.286-5.256 2.919.729-6.465-.409-.32-6.604 8.227.409.32 4.174-5.21-.684 5.298zm3.854 6.464l.784.936 8.193-6.673-.761-.96-8.216 6.697zm8.57-1.376l.617-.353-3.346 5.826-.563.33 3.291-5.803zm-6.903 3.249l.232.473 5.875-3.282-3.843 6.762 9.243-5.154-.265-.463-5.047 2.809 3.313-5.86-.254-.428-9.254 5.143zm-3.81-4.384l.961.76 6.604-8.226-.961-.76-6.604 8.226zm1.579 1.84l.354.385 8.194-6.674-.354-.418-8.194 6.706zm16.112 6.651l-.144-.506-10.27 2.73.144.497 10.27-2.72zm-1.58-3.953l-.618-1.058-9.276 5.154.618 1.058 9.277-5.154zM43.177.937c.154.096.271.191.352.287L43.12 9.45l-.386.243.441-8.756zm-1.381-.44c.31 0 .592.059.85.176l-.442 9.251c-.39.08-.684.11-.883.088-.685-.022-1.259-.257-1.723-.705-.471-.47-.7-1.006-.684-1.608l.265-5.12c.044-.61.32-1.116.828-1.52.508-.411 1.104-.599 1.789-.562zm-2.176.21c-.604.484-.928 1.096-.971 1.838l-.254 5.121c-.045.742.217 1.388.784 1.939.567.565 1.273.855 2.12.87.84.044 1.56-.18 2.164-.672.626-.485.961-1.098 1.005-1.84l.232-5.12c.037-.742-.217-1.388-.762-1.938-.567-.566-1.27-.867-2.11-.904-.86-.022-1.597.213-2.208.705zM21.63 4.45l-.265-.408-5.698 3.392.232.408 1.91-1.113 5.257 8.58.442-.298-5.224-8.568.288-.176 5.256 8.568 1.093-.64-5.256-8.578L21.63 4.45zM30.464.883L25.65 2.336l3.114 10.022 4.815-1.465-.122-.44-3.644 1.112-1.314-4.218 3.633-1.08-.144-.44-3.61 1.08-1.403-4.482 3.611-1.113-.122-.43zm-5.167 1.574l-.498.144 3.137 10.01.496-.143-3.135-10.01zm-8.514 15.11l-2.165 2.192-2.474-4.483 4.639 2.291zm2.031 1.024l.376-.407-7.51-3.723-.298-.528 8.04 4.009.861-.87-9.928-4.978-.375.374 5.4 9.636.354-.385-.619-1.113 2.551-2.599 1.148.584zm26.647-7.731l.497.121L48.928.905 48.432.76l-2.972 10.1zM15.049 57.907l.442-.242-3.225-5.738-.408.209 1.048 1.927-8.889 4.835.265.44 8.89-4.801.176.286-8.89 4.835.62 1.079 8.889-4.801 1.082 1.97zm-2.518 9.041l-2.12-2.257 4.704-2.192-2.584 4.45zm3.4-4.857l.564-.264-4.494 7.72.817.86 5.61-9.493-.376-.376-10.015 4.77.353.352 1.148-.529 2.496 2.665-.652 1.08.387.418 4.163-7.203zm5.17 1.554l-.265.374 1.876 1.2-5.543 8.403.464.298 5.521-8.436.299.21-5.522 8.39 1.06.683 5.543-8.402 1.911 1.222.265-.374-5.61-3.568zm9.74 5.175l-.498-.12-2.341 10.22.497.12 2.341-10.22zm4.527 6.41c-.317 1.329-.876 2.324-1.678 2.985-.936.8-2.117 1.034-3.546.704l2.143-9.338c1.443.33 2.411 1.06 2.904 2.19.412.963.471 2.115.177 3.459zm-2.97-6.057l-1.204-.297-2.342 10.252 1.204.265c1.56.345 2.872.088 3.932-.77.934-.743 1.571-1.833 1.91-3.272.331-1.446.243-2.706-.265-3.778-.59-1.247-1.668-2.048-3.236-2.4zm9.341.969l-1.446.022.089 3.05 1.468.87-.11-3.942zm3.899-.352l-.497.143 2.727 10.131.497-.12-2.727-10.154zm32.996-40.924c.368 1.402.162 2.58-.618 3.535-.663.822-1.66 1.41-2.993 1.762-1.332.353-2.488.334-3.468-.055-1.133-.455-1.896-1.383-2.286-2.786l9.365-2.456zm-.21 3.833c.861-1.072 1.079-2.39.652-3.954l-.331-1.167-10.27 2.72.32 1.167c.434 1.542 1.277 2.577 2.529 3.106 1.096.47 2.37.51 3.82.121 1.465-.39 2.559-1.054 3.28-1.993zM70.76 44.758l-.464-.121-1.678 6.387.475.121.552-2.114 9.84 2.522.12-.529-9.805-2.522.088-.352 9.806 2.522.32-1.2-9.839-2.523.585-2.191zm-6.095 13.964l.96-1.344c.39-.587.928-.957 1.613-1.112.67-.161 1.259-.055 1.766.32.53.366.843.884.939 1.552.081.661-.084 1.285-.497 1.872l-.972 1.344-3.81-2.632zm.585-1.608l-1.679 2.368 8.724 6.002.696-1.025-4.13-2.84.784-1.113 5.787.529.32-.441-5.809-.496c.434-.704.593-1.435.475-2.191-.118-.764-.482-1.35-1.094-1.762-.625-.426-1.34-.543-2.142-.353a3.265 3.265 0 00-1.932 1.322zm-1.877 2.665l-.299.407 8.713 6.002.298-.44-8.712-5.969zm-12.39 9.097l-.122-.441-4.87 1.267 2.727 10.12 4.848-1.255-.12-.44-3.667.968-1.116-4.273 3.644-.969-.12-.44-3.667.969-1.204-4.57 3.666-.936zm8.8 3.81c-.367-.565-1.247-.918-2.639-1.057-1.546-.154-2.466-.39-2.76-.705.118.118.95.228 2.495.33 1.392.074 2.36.551 2.905 1.432zm-6.835-4.449c-.427.778-.468 1.49-.121 2.137.47.88 1.568 1.446 3.29 1.695 1.723.235 2.769.724 3.137 1.465.28.506.302.995.066 1.465-.199.411-.593.77-1.182 1.079-.78.389-1.513.555-2.197.495l.231.441c.552.103 1.296-.08 2.231-.55.965-.47 1.65-1.058 2.054-1.762.456-.779.468-1.58.033-2.401-.544-1.035-1.766-1.583-3.666-1.642-1.921-.073-3.018-.385-3.29-.935-.251-.485-.233-.999.055-1.542.28-.514.702-.914 1.27-1.2.802-.412 1.693-.492 2.672-.243l-.265-.463c-.788-.293-1.66-.198-2.617.287-.766.396-1.333.954-1.701 1.674zm9.508-5.914c.67.022 1.218.264 1.645.727.413.492.578 1.068.498 1.729-.074.668-.387 1.234-.94 1.696l-1.258 1.09-3.06-3.49 1.271-1.08c.545-.47 1.16-.694 1.844-.672zm2.054.375c-.508-.566-1.17-.856-1.988-.871-.825 0-1.56.272-2.208.816l-2.198 1.871 6.957 7.963.939-.815-3.324-3.778 1.27-1.057c.663-.565 1.042-1.248 1.137-2.048.118-.8-.077-1.494-.585-2.081zm-6.692 2.059l-.375.341 6.957 7.94.375-.352-6.957-7.929zm19.115-6.685l.232-.462-9.685-4.361-.21.462 9.663 4.361zm.376-.782l.497-1.112-9.652-4.361-.53 1.112 9.685 4.361zM3.929 21.455l.176-.32 8.868 4.89.64-1.08-8.89-4.89 1.116-1.96-.409-.242-3.235 5.738.408.242 1.06-1.905 8.89 4.89.265-.474-8.89-4.89zm1.237 9.482c1.015-.97 2.042-1.33 3.08-1.08-.706-.154-1.59.235-2.65 1.168-1.148 1.02-1.94 1.53-2.374 1.53.184-.007.832-.547 1.944-1.618zm-2.971-3.514l-.497-.11c-.354.177-.678.47-.972.881a.074.074 0 00-.022.055 3.583 3.583 0 00-.563 1.168 3.952 3.952 0 00.089 2.378c.117.33.275.613.474.849l.055.055c.273.308.604.513.994.616.766.191 1.646-.014 2.64-.616.279-.177.566-.382.86-.617 1.325-1.094 2.4-1.535 3.225-1.322.368.103.663.28.884.529.095.117.172.246.232.385.022.06.04.118.055.177.14.366.14.803 0 1.31a.317.317 0 01-.022.121c-.236.823-.608 1.469-1.116 1.938l.498.144a2.41 2.41 0 00.64-.826 5.39 5.39 0 00.42-1.168c.286-1.035.305-1.93.055-2.687a2.968 2.968 0 00-.475-.88 2.369 2.369 0 00-.287-.265 2.35 2.35 0 00-.972-.496c-1.134-.315-2.378.202-3.733 1.553-1.347 1.343-2.315 1.938-2.904 1.784-.486-.117-.835-.44-1.049-.97a.863.863 0 01-.066-.142 2.93 2.93 0 01-.055-1.729 2.59 2.59 0 01.121-.32c.272-.682.77-1.28 1.49-1.795zM.196 48.502l.155.496 10.237-2.83-.144-.507L.196 48.5zm5.786.584l4.583-1.278 1.028 3.59.44-.11-1.357-4.768L.438 49.35l1.38 4.78.43-.121-1.026-3.602 4.296-1.2 1.027 3.601.464-.12-1.028-3.602zm57.379-19.449c.074-.14.019-.422-.165-.848-.192-.426-.85-.834-1.977-1.223a5.671 5.671 0 01-2.76-2.037c-.384-.514-.557-1.109-.52-1.784-.353-.103-.614-.26-.784-.474-.17-.213-.272-.738-.31-1.575-.036-.837-.327-1.508-.871-2.015-.552-.507-.932-.822-1.137-.947a71.17 71.17 0 01-.94-.595c-.419-.264-1.177-.573-2.274-.925-1.104-.352-2.143-.323-3.114.088 1.067-.095 1.976 0 2.727.287a9.678 9.678 0 012.055 1.057c.625.418 1.222.984 1.789 1.696.566.72.88 1.64.938 2.764.03.529.037.86.022.991.03.081.066.162.11.243a9.533 9.533 0 001.38 2.103c.553.639 1.665 1.274 3.336 1.905 1.133.426 1.965.855 2.495 1.289zm-16.1-12.456c.368-.022.46-.165.276-.43-.177-.27-.5-.414-.972-.43-.471-.02-.861.185-1.17.618-.288.389-.343 1.046-.166 1.971.007.052.015.121.022.21.015.286.067.447.155.484.08.037.18-.21.298-.738.11-.543.306-.955.585-1.233.28-.28.604-.43.972-.452zm-1.811 6.013a8.65 8.65 0 01-.077-.738c-.126.323-.287.58-.486.771-.106.105-.312.249-.619.43-.1.058-.21.12-.331.187-.066.037-.372.19-.917.463a4.31 4.31 0 00-.695.418c-.198.15-.349.333-.453.55a2.015 2.015 0 00-.144.783v.01c.002.484.16.87.475 1.157.047.048.099.092.155.132.346.264.78.397 1.303.397.655 0 1.145-.33 1.469-.992a2.99 2.99 0 00.176-.462l.232-1.784v-.199a10.785 10.785 0 00-.088-1.123zm2.772-4.713c-.546.213-.895.785-1.05 1.718-.161.932-.11 1.534.155 1.806 2.216.132 4.248.881 6.096 2.247.353-2.291.018-3.859-1.005-4.703-1.031-.852-1.852-1.292-2.463-1.322a4.113 4.113 0 00-1.733.254zm2.02 7.026c.553.051 1.208.36 1.966.925 1.936 1.652 3.103 3.693 3.5 6.123.31 2.944.472 6.024.487 9.24.198 3.649 1.262 6.604 3.191 8.865.707.948 1.321 1.682 1.844 2.203.523.52.939.72 1.248.594.302-.132.453-.271.453-.418-.008-.147-.092-.312-.255-.495a2.925 2.925 0 00-.308-.287c-2.26-1.99-3.696-3.91-4.307-5.76-.803-2.452-1.145-5.836-1.027-10.154 0-1.652-.14-3.102-.42-4.35-.45-2.121-1.564-4.052-3.346-5.792-1.752-1.711-3.75-2.61-5.996-2.699 0 .155-.004.309-.011.463-.007.301-.03.598-.067.892 2.88 2.1 4.834 4.824 5.864 8.172.398 1.644.615 3.12.652 4.427.125 3.127.46 5.539 1.005 7.235l3.17 9.56c.404 1.226.617 2.129.64 2.709.022.58.136.877.342.892.206.014.394-.07.563-.254a.994.994 0 00.254-.682c.03-.536-.173-1.484-.607-2.842-.442-1.365-1.056-2.944-1.844-4.735-1.428-3.23-2.183-6.392-2.264-9.482-.081-3.091-.453-5.62-1.116-7.588-.648-1.924-1.693-3.638-3.136-5.143-.596-.595-.913-.966-.949-1.113-.148-.388.01-.558.474-.506zm-4.571 7.654c-.236.25-.273.345-.11.286.048-.018.11-.036.187-.055.177-.038.427-.074.75-.11.472-.051 1.068.044 1.79.286.729.242 1.219.367 1.468.375.197.011.314-.08.354-.276a.617.617 0 00.022-.176c0-.316-.232-.598-.696-.848a2.743 2.743 0 00-1.424-.363 4.06 4.06 0 00-1.37.264c-.269.096-.5.217-.695.364a1.847 1.847 0 00-.276.253zm12.412-4.857c-.847-.866-1.609-1.982-2.286-3.348l-.022.088c-.03.154-.1.489-.21 1.003a17.484 17.484 0 013.125 5.297c1.436.293 2.577.984 3.424 2.07.169.213.35.496.54.848.192.352.32.774.387 1.267.066.484-.184 1.633-.75 3.447-.568 1.806-.148 3.4 1.258 4.78.67.66 1.259 1.068 1.767 1.222.324.043.526.014.608-.089a.81.81 0 00.143-.418c.014-.176-.07-.352-.254-.529l-.165-.11a1.435 1.435 0 01-.133-.044c-.655-.227-1.145-.447-1.469-.66-.817-.544-1.226-1.51-1.226-2.897 0-.433.14-1.112.42-2.037.272-.933.416-1.861.43-2.787.015-.932-.128-1.761-.43-2.488-.31-.734-.928-1.418-1.855-2.049-1.605-1.101-2.706-1.956-3.302-2.566zm2.374 11.597c.479-1.696.243-2.963-.707-3.8-.603-.484-.956-.389-1.06.287-.537 3.553-.342 6.703.586 9.448.854 2.063 2.208 3.936 4.063 5.617.56-.066.615-.418.166-1.057a25.984 25.984 0 00-1.38-1.817c-1.082-1.285-1.778-2.533-2.087-3.744-.295-1.256-.155-2.9.42-4.934zm-10.303-4.174c.059-.103-.03-.235-.265-.397a5.324 5.324 0 00-.773-.385 5.127 5.127 0 00-1.027-.276c-1.207-.22-2.286.052-3.235.815a2.006 2.006 0 00-.177.176c-.162.177-.258.328-.287.452-.037.147.047.173.254.077v-.01c.055-.025.117-.062.188-.11 1.39-.654 2.738-.787 4.041-.397.64.213 1.068.231 1.281.055zm-2.44 1.344c.007.05.025.087.055.11a.29.29 0 00.154.054.462.462 0 00.089-.032c.047-.023.107-.052.176-.089.118-.059.17-.12.155-.187-.022-.066-.096-.11-.221-.132a1.654 1.654 0 00-.176-.022.615.615 0 00-.122.011c-.015.014-.04.037-.077.066-.037.044-.048.118-.033.22zm4.848 10.34a4.912 4.912 0 00-.1-.858c-.133.425-.445 1.12-.938 2.08a35.044 35.044 0 00-1.403 3.117 11.995 11.995 0 00-.806 3.491c-.067.837-.078 1.385-.034 1.642.013.052.024.092.034.12.02.036.042.055.066.056.235-1.241.475-2.162.718-2.765.25-.616.567-1.303.95-2.059.375-.756.714-1.593 1.016-2.511.331-1.02.497-1.791.497-2.312zm-1.105 6.96a20.326 20.326 0 00-.066-.914c-.03-.014-.173.397-.43 1.234a8.405 8.405 0 00-.398 2.554c0 .772.162 1.58.485 2.424.317.837.854 1.468 1.613 1.894.75.418 1.174.492 1.27.22.095-.271.059-.47-.11-.595-.177-.132-.604-1.123-1.282-2.973-.677-1.85-1.038-3.132-1.082-3.843zM61.64 44.207c-.266.383-.291.87-.077 1.465.286.764.85 1.414 1.689 1.95.84.535 1.388.506 1.645-.088.089-.617-.103-1.036-.574-1.256-.471-.22-.931-.664-1.38-1.333-.45-.675-.883-.92-1.303-.738zm4.218-7.202a4.793 4.793 0 00-.717-1.685c.427 1.571.394 2.662-.1 3.271-.493.61-.766 1.256-.818 1.938-.05.683.251 1.094.906 1.234.656.14.898-.07.73-.628-.17-.558-.229-.987-.178-1.288.052-.31.125-.712.221-1.212s.081-1.042-.044-1.63zM46.72 59.536a2.723 2.723 0 00-.166-.198c-.38-.471-.748-.795-1.104-.969a9.836 9.836 0 00-1.336-.55c-.486-.155-1.13.036-1.933.572-.795.529-1.406.742-1.833.639a14.68 14.68 0 01-1.259-.363c-.412-.132-.902-.14-1.468-.023-.568.125-1.241.559-2.021 1.3-.781.734-1.285 1.332-1.513 1.795-.228.455-.218.86.033 1.211.412.191.824.173 1.236-.055 1.996-1.108 3.306-1.736 3.932-1.883 2.127-.514 4.649-.363 7.564.452a1.19 1.19 0 00.299-.44 1.68 1.68 0 00.098-.452c0-.14-.102-.375-.308-.705.228.272.154.162-.221-.33zm2.65-.054c-.162-.088-.283-.048-.364.12-.074.177-.118.515-.133 1.014-.014.492.074 1.145.266 1.96.183.808.477 1.322.883 1.542.324.073.721-.018 1.192-.275.494-.287.74-.503.74-.65a.118.118 0 00-.011-.055 27.862 27.862 0 00-.387-.33c-.706-.588-1.247-1.135-1.623-1.642a2.796 2.796 0 01-.563-1.684zm-2.595 4.416a10.56 10.56 0 00-.64-.452 6.224 6.224 0 00-1.215-.595 7.11 7.11 0 00-2.551-.484c-1.959 0-3.703.624-5.235 1.872a6.83 6.83 0 00-.508.452c-.338.52-.18.748.476.682.102-.014.22-.036.353-.066.235-.103.46-.23.673-.385 1.281-1.072 3.034-1.56 5.257-1.465.81.11 1.52.334 2.131.672.61.33 1.005.452 1.182.363a.47.47 0 00.243-.33v-.121a21.587 21.587 0 00-.166-.143zm-1.17 1.508a.765.765 0 00.187-.077.436.436 0 00.1-.055 4.934 4.934 0 00-1.094-.506 7.092 7.092 0 00-2.142-.353c-.523 0-1.045.063-1.568.187a5.51 5.51 0 00-1.425.53 6.887 6.887 0 00-1.104.737.52.52 0 00.154.088c.082.022.218.033.41.033.205 0 .39-.051.551-.154a.87.87 0 01.299-.176c.228-.118.504-.198.828-.243.073-.015.15-.025.232-.033a.555.555 0 01.154 0c.089 0 .243.018.464.055.221.037.383.055.486.055.228 0 .545-.062.95-.187a3.081 3.081 0 011.104-.176c.331.007.541.026.63.055.08.022.19.07.33.143a.287.287 0 01.067.033c.03.015.055.03.077.044.037.008.081.015.133.023.051 0 .11-.008.177-.023zm-3.612-48.853c-.14-.403-.449-.693-.927-.87a10.78 10.78 0 00-2.043-.517 13.21 13.21 0 01-.95-.176 10.236 10.236 0 00-1.137-.067 8.725 8.725 0 00-1.623.144c-.597.095-1.064.29-1.403.583-.339.294-.508.716-.508 1.267 0 .403.114.705.342.903.184.154.427.231.73.231.286 0 .573-.095.86-.286.118-.073.369-.276.751-.606.7-.595 1.362-.892 1.988-.892.626.007 1.123.169 1.49.485.377.315.395 1.457.056 3.425-.13.764-.135 1.418-.011 1.96a3.255 3.255 0 00.221.606l.905.947c.138.078.286.144.442.198l.011.011a3.105 3.105 0 00-.11-.154 14.453 14.453 0 00-.254-.353c-.199-.286-.331-.738-.398-1.354-.066-.624-.003-1.116.188-1.476.103-.205.31-.507.618-.903.287-.382.545-.862.773-1.443.229-.58.225-1.134-.01-1.663zm1.966-.99c.118-.375.096-.658-.066-.849-.17-.19-.412-.224-.73-.099-.323.117-.478.33-.463.639.015.396.21 1.09.586 2.081.419 1.116.426 1.85.021 2.203a30.99 30.99 0 00-1.082 1.002c-.33.323-.497.73-.497 1.222 0 .28.114.526.343.738.198.191.404.286.618.286.618 0 1.068-.319 1.347-.958.229-.513.343-1.218.343-2.114 0-.25-.048-.617-.144-1.101a76.428 76.428 0 01-.298-1.608c-.103-.595-.096-1.075.022-1.443zm-6.04 1.993c-.405 0-.792.088-1.16.264-.375.176-.755.55-1.138 1.123-.382.573-.802.977-1.258 1.211a3.12 3.12 0 01-1.47.353c-.529 0-.989-.198-1.38-.595-.434-.44-.651-1.01-.651-1.707 0-.315.026-.602.077-.859.067-.293.18-.639.343-1.035.191-.477.316-.774.375-.892l.1-.176c-.538.103-1.031.393-1.48.87-.45.47-.707 1.244-.773 2.324-.074 1.071.327 1.986 1.204 2.742.868.756 2.683.823 5.444.198.331-.073.603-.162.817-.264 1.266-.566 1.921-1.219 1.965-1.96.038-.742-.044-1.194-.242-1.355-.2-.161-.457-.242-.773-.242zm1.17 6.023a8.127 8.127 0 01-.232-.11 5.457 5.457 0 00-2.44-.583c-1.186.059-2.242.367-3.17.925-.75.455-1.472 1.296-2.164 2.522a23.784 23.784 0 00-1.137 3.348c-.096.345-.184.697-.266 1.057a3.644 3.644 0 00-.077.264c-.53 1.777-1.292 3.253-2.286 4.427-.125.147-.253.29-.386.43l-.21.21c-.604.587-1.443 1.291-2.518 2.114-1.082.822-1.97 1.93-2.661 3.325-.707 1.388-.799 3.311-.276 5.771.317-3.047.806-5.047 1.469-6.002.662-.961 1.354-1.762 2.076-2.4.505-.444.987-.862 1.446-1.256l.596-.496a46.8 46.8 0 001.602-1.41l.033-.032c.041-.039.082-.08.121-.121l.122-.121a1.43 1.43 0 00.155-.133l.032-.033.31-.33a.906.906 0 00.121-.132c1.018-1.05 1.614-2.41 1.79-4.075.028-.169.062-.338.099-.507a1.66 1.66 0 01.033-.209c.287-1.468.615-2.592.983-3.37a6.278 6.278 0 011.568-2.07c.493-.419 1.115-.701 1.866-.848.083-.02.164-.039.243-.055l.717-.066a3.115 3.115 0 011.867.594c.189.138.37.296.541.474.206.213.376.466.508.76.14.286.309.822.508 1.607.206.786.457 1.326.75 1.62a1.56 1.56 0 001.061.462c.243.007.63-.103 1.16-.33a.056.056 0 01-.023-.011c-.485-.08-.978-.34-1.48-.782a2.1 2.1 0 01-.574-.815 2.65 2.65 0 01-.187-1.035v-.011c.007-.773.044-1.283.11-1.531a26.817 26.817 0 00-1.8-1.035zm-11.716-.098c.647-.493.964-.977.95-1.454-.015-.492-.21-1.2-.586-2.126a3.146 3.146 0 01-.155-1.883c-.618.47-.942 1.028-.971 1.674-.03.639-.074 1.105-.133 1.399-.059.286-.257.587-.596.903-.346.308-1.406.715-3.18 1.222-1.782.5-2.507 1.454-2.176 2.864-1.458.704-2.378 1.31-2.76 1.817-.347.44-.645 1.104-.895 1.993a24.67 24.67 0 00-.43 1.971c-.148.742-.292 1.277-.431 1.608a24.15 24.15 0 01-.597 1.333 2.693 2.693 0 01-.63.804c-.28.242-.493.565-.64.969-.155.396-.136.668.055.815.184.14.365.04.541-.297.17-.338.49-.797.961-1.377.464-.588 1.318-1.336 2.562-2.247.39-.286.803-.58 1.237-.88a5.732 5.732 0 01-.077-.958c0-.867.191-1.616.574-2.248.235-.389.622-.76 1.16-1.112a4.196 4.196 0 01.088-1.046c.147-.698.578-1.252 1.292-1.663.707-.411 1.527-.741 2.462-.991.935-.25 1.727-.613 2.375-1.09zm1.49.473c-.22.213-.651.488-1.292.826-1.207.646-2.13 1.175-2.772 1.586-.655.411-1.119.855-1.39 1.332a5.94 5.94 0 00-.608 1.51c-.133.535-.154.96-.066 1.277 1.649-1.102 2.849-2.012 3.6-2.731.868-.852 1.711-2.118 2.528-3.8zm-1.016 4.45a7.49 7.49 0 001.59-2.93c-1.457 2.1-3.99 4.365-7.597 6.795-3.614 2.422-5.775 4.691-6.482 6.806-.736 1.659-.902 4.041-.497 7.147.22 1.329.655 2.701 1.303 4.119.64 1.41 1.097 2.162 1.37 2.258.264.088.467.022.607-.199.14-.22.107-.712-.1-1.476a32.806 32.806 0 01-.585-2.522 40.654 40.654 0 01-.475-2.764c-.125-.925-.202-1.494-.232-1.707a13.97 13.97 0 01-.066-.54 26.332 26.332 0 01-.055-1.167c-.03-.63.059-1.398.265-2.301.198-.904.64-1.829 1.325-2.776.677-.94 1.535-1.79 2.573-2.555 1.023-.763 2.271-1.769 3.744-3.017 1.457-1.255 2.562-2.313 3.312-3.172zm-.176 3.468c.302-.859.493-1.376.574-1.552-1.207 1.306-3.026 2.87-5.455 4.691-.052.037-.1.073-.143.11l-.111.077c-1.687 1.314-2.853 3-3.5 5.055-.582 2.232-.689 5.029-.32 8.392.279 2.166.25 3.942-.09 5.33l-.065.264v.088c0 .383.106.573.32.573.22 0 .397-.363.53-1.09.044-.198.084-.463.121-.793a4.696 4.696 0 010-.462c-.008-5.36.191-8.826.596-10.397.192-.675.593-1.431 1.204-2.269a14.024 14.024 0 012.628-2.698c.464-.367.917-.796 1.358-1.288.45-.5.88-1.08 1.293-1.74a12.25 12.25 0 001.06-2.29zm4.649 1.674c.074.081.206.125.397.132.11 0 .236-.014.376-.044.573.006 1.055.076 1.446.21.276.076.534.179.773.308.102.04.16.054.177.044v-.011c.038-.017.06-.043.066-.077 0-.03-.04-.125-.121-.286a2.314 2.314 0 00-.95-.937 2.874 2.874 0 00-.85-.275c-.368-.059-.659-.033-.872.078-.229.11-.376.245-.442.407a.536.536 0 00-.056.176.032.032 0 00-.01.022.365.365 0 00.022.176.64.64 0 00.044.077zm-5.798 6.608v-.242c-.552.529-.898 1.398-1.038 2.61-.147 1.204-.055 2.217.276 3.04.022.05.044.099.067.143.353.748 1.03 1.431 2.031 2.048a.164.164 0 01.034.022c1.09.66 1.858 1.207 2.308 1.64.434.427.776.966 1.027 1.62v-.606c-.037-.903-.24-1.623-.608-2.159-.265-.381-.648-.818-1.148-1.31a25.429 25.429 0 00-1.226-1.112 3.56 3.56 0 01-.232-.231c-.95-.999-1.447-2.82-1.49-5.463zm-1.943 5.704c.147 1.014.338 1.84.574 2.478.14.382.479 1.006 1.016 1.873.345.565.78 1.23 1.303 1.993l.044.066c.53.786.965 1.417 1.303 1.894.22.155.416.04.586-.341.036-.074.073-.165.11-.276.073-.235.121-.557.143-.969a.598.598 0 00.012-.12 2.95 2.95 0 00-.299-1.378 4.718 4.718 0 00-.11-.23 5.674 5.674 0 00-.84-1.08 13.864 13.864 0 00-.993-.892 92.1 92.1 0 01-1.005-.804c-.413-.352-.696-.617-.85-.793-.273-.286-.604-.76-.994-1.42zm-3.18 5.507c-.133-.11-.244.455-.332 1.696-.073 1.145-.228 2.11-.464 2.896l-.044.154-.044.474c0 .316.092.587.276.815.17.206.35.308.54.308.252 0 .498-.165.741-.495a3.28 3.28 0 00.43-.826 3.4 3.4 0 00.133-.683c0-.235-.01-.477-.033-.727-.14-1.527-.541-2.731-1.203-3.612zm5.255 3.139a20.153 20.153 0 00-2.738-4.857c1.104 2.908 1.73 6.226 1.877 9.956.008.131.012.238.012.319 0 .073.014.224.044.452.03.227.059.48.088.759.03.28.118.51.265.694.14.176.512.316 1.115.419.604.095.869-.44.796-1.608-.081-1.175-.174-2.056-.277-2.643-.11-.595-.504-1.759-1.181-3.491zm7.863-19.537c-.007 0-.014-.004-.022-.011a.452.452 0 01-.088-.033c-.84-.316-1.77-.419-2.794-.309a2.11 2.11 0 01-.055.122 2.72 2.72 0 01-.729.958c.846-.272 1.65-.367 2.407-.287a5.567 5.567 0 011.844.496c.284.131.567.285.85.462.2-.073.174-.245-.076-.517a3.722 3.722 0 00-1.005-.727 1.016 1.016 0 00-.177-.088l-.154-.066zm-.309 2.06c.133-.03.199-.074.199-.133 0-.058-.055-.114-.166-.165a.847.847 0 00-.22-.066h-.034c-.022 0-.051.015-.088.044-.037.014-.059.07-.066.165-.015.044-.008.081.022.11a.183.183 0 00.077.056c.016.01.03.016.044.021a.727.727 0 00.232-.033zm-3.17 18.853c-.301.03-.563.173-.783.43a1.4 1.4 0 00-.387.815c-.022.293.019.804.122 1.53.103.72.169 1.458.199 2.214a4.254 4.254 0 01-.387 1.905 2.156 2.156 0 00-.11.55c0 .258.11.47.331.64.191.147.401.22.63.22.28 0 .65-.26 1.114-.782.2-.22.354-.459.464-.716.354-.851.53-1.633.53-2.346 0-.726-.022-1.28-.066-1.663a21.368 21.368 0 00-.199-1.2 2.4 2.4 0 00-.563-1.145c-.294-.338-.593-.488-.894-.452zm-6.658 2.5c-.184-.382-.475-.558-.872-.528-.324.022-.552.157-.685.407-.133.242-.191.43-.177.562.015.125.092.286.232.484.133.199.287.371.464.518.434.36.773.54 1.016.54 0 .03.04.022.122-.023a.827.827 0 00.187-.154.33.33 0 00.066-.187v-.088a3.691 3.691 0 01-.01-.21 6.474 6.474 0 01-.034-.407c-.022-.227-.125-.532-.309-.914zm29.209-9.9c-.23.323-.435.94-.619 1.85-.184.888-.276 1.74-.276 2.554 0 .823.18 1.679.541 2.567l1.038 2.621c.339.851.663 1.487.972 1.905.302.418.519.632.652.639.132.007.198-.055.198-.188-.007-.139.026-.374.1-.704.073-.338.276-.584.607-.738.324-.162.523-.294.596-.396a.536.536 0 00.1-.287c-.008-.095-.015-.21-.023-.341-.007-.14-.018-.29-.033-.452l-.022-.154a11.199 11.199 0 00-.364-1.509c-.31-.983-.71-1.905-1.204-2.764-.824-1.432-1.343-2.364-1.557-2.797-.353-.69-.589-1.292-.706-1.807zm-11.772.99h-.011l-.11.056c.19.029.334.037.43.022a5.2 5.2 0 01-.96.407c.102-.007.206-.01.308-.01.052.007.1.003.144-.011a1.961 1.961 0 01-.685.319c.03.007.052.015.066.022h.012c-.464.235-.95.286-1.458.154a.458.458 0 01.132-.11c-.11 0-.22.004-.33.011a1.085 1.085 0 01-.608-.1c.22-.058.449-.106.685-.143a1.477 1.477 0 01-.288-.044c.01.003.022.003.033 0a1.239 1.239 0 01-.11-.01 5.61 5.61 0 01-.751-.188.441.441 0 01-.088-.033c-.03-.007-.044-.022-.044-.044.34-.02.683-.032 1.027-.033h.044a1.554 1.554 0 01-.177-.055.39.39 0 00.1-.011 5.678 5.678 0 01-.95-.143 3.641 3.641 0 01-1.127-.463c-.073-.05-.08-.095-.022-.132 1.554.507 3.04.584 4.462.231 1.42-.345 1.8-.36 1.137-.043l-.332.165a4.285 4.285 0 01-.341.143l-.188.044zm-5.953-2.466c.06 0 .133.011.221.033.074.022.2.033.376.033.177-.008.372-.096.586-.264a9.23 9.23 0 00.363-.32c.008-.007.012-.015.012-.022a3.33 3.33 0 01.96-.748c.457-.17.89-.188 1.303-.055.03.006.067.018.11.032.03.015.06.026.09.033a.24.24 0 00.12.011.226.226 0 00.122-.01.417.417 0 00.089-.033.716.716 0 01.099-.033c.42-.133.858-.114 1.314.055.044.021.092.047.143.076.288.17.56.393.818.672l.021.022c.037.037.155.144.354.32.213.168.409.256.585.264.177 0 .306-.01.387-.033a.835.835 0 01.21-.033c.191.051.254.154.187.308-.1.17-.317.277-.65.32a3.74 3.74 0 01-.84.01 28.63 28.63 0 00-2.838-.253c-.773.023-1.723.107-2.85.254-.373.03-.678.023-.916-.022-.284-.05-.471-.153-.563-.309-.066-.154-.004-.257.187-.308zm1.966-4.658c.037.345.192.425.464.242.272-.184.63-.125 1.071.176.442.308.964.279 1.568-.088.59-.375 1.03-.448 1.325-.22.221.18.324.34.31.484a.278.278 0 01-.034.122c-.088.183-.276.252-.563.209a.91.91 0 00-.75.198c-.229.168-.439.334-.63.495-.199.162-.457.199-.773.11-.316-.087-.784-.363-1.402-.825a2.151 2.151 0 01-.42-.088c-.221-.066-.38-.177-.475-.331-.102-.172-.127-.378-.077-.617a1.65 1.65 0 01.11-.33c.162-.36.42-.613.773-.76.128.012.18.049.155.11.008.065-.077.164-.254.297-.208.162-.337.35-.387.562a.948.948 0 00-.01.254zm8.492-15.033l-.132.242c-.508.815-1.395 1.454-2.661 1.917a5.84 5.84 0 01-1.459.418.845.845 0 01-.143.011c-1.288.11-2.205-.602-2.75-2.136-.61-1.704-1.424-2.596-2.44-2.676a1.59 1.59 0 01-.089-.012h-.032a39.38 39.38 0 00-.122.012l-.63.077a3.691 3.691 0 00-.42.1 3.807 3.807 0 00-.54.186l-.144.066a4.65 4.65 0 00-.143.088l-.078.055a2.129 2.129 0 01-.11.066 1.949 1.949 0 00-.265.243 6.9 6.9 0 00-1.347 2.378c-.184.566-.375 1.406-.574 2.522-.045.242-.093.481-.144.716a5.633 5.633 0 00.243 0c.334.007.661.029.983.066.327.044.643.099.95.165a9.342 9.342 0 011.148.353c.919.367 1.663.906 2.23 1.618.862 1.293 1.17 2.376.928 3.25a2.564 2.564 0 01-.077.22c-.116.236-.27.397-.464.484a.837.837 0 01-.254.077.949.949 0 01-.32-.01 1.388 1.388 0 01-.541-.166 1.946 1.946 0 01-.431-.309c-.405-.366-.865-.498-1.38-.396-.002.006-.005.01-.012.011-.197.678-.874 1.038-2.031 1.08-.909.062-1.55-.096-1.922-.474a2.048 2.048 0 01-.133-.154 1.282 1.282 0 01-.22-.452.482.482 0 01-.066 0c-.256.01-.525-.063-.807-.22a2.575 2.575 0 01-.275-.176 30.3 30.3 0 01-.74.903 7.7 7.7 0 00-.078.099c-.15.2-.256.376-.32.528-.199.448-.302 1.04-.31 1.774a6.31 6.31 0 00.045.903c.058.47.165.95.32 1.442.125.412.254.775.387 1.09.132.316.272.591.42.827.28.44.518.778.717 1.013.199.235.556.562 1.071.98.508.411.854.921 1.038 1.53.184.602.317 1.12.398 1.554.066.425.15.833.254 1.222.088.382.331.921.729 1.619.117.213.298.43.541.65.508.47 1.362.965 2.561 1.486.295.162.593.305.895.43.214.073.427.143.641.209.088.03.176.052.265.066.375.103.75.161 1.126.176.192.015.38.019.563.011l.32-.021c1.237-.11 2.474-.621 3.711-1.531 3.71-1.8 5.765-4.16 6.162-7.082 0-.014.004-.03.01-.044.03-.25.053-.503.067-.76.133-1.35.405-2.562.818-3.634.546-1.804.605-3.713.176-5.727a.877.877 0 00-.011-.055l-.088-.308c.015.073-.022.177-.11.308-.35.391-.803.62-1.359.683-.16.022-.328.03-.508.022a2.75 2.75 0 01-.188-.011c-.36.874-1.078 1.296-2.153 1.267h-.144a5.786 5.786 0 01-.143-.022 8.817 8.817 0 01-.133-.012c-.716-.083-1.21-.38-1.48-.891a1.175 1.175 0 01-.066-.133 1.86 1.86 0 00-1.27.22l-.188.1c-.306.156-.508.259-.607.308-.11.052-.28.052-.508 0a.542.542 0 01-.077-.022 1.456 1.456 0 01-.387-.165c-.213-.19-.32-.507-.32-.947a5.63 5.63 0 01.1-.969c.206-1.036.68-1.88 1.424-2.533.081-.074.166-.14.254-.198 1.318-.999 3.17-1.502 5.555-1.51.125.03.243.07.353.122l-.177-.308h.023a22.165 22.165 0 00-.674-1.025l-2.23-2.874z" fill="#BB9F79"/></svg>